# xmcd
#
# Track frame offsets: 
#        150
#        13349
#        33833
#        48499
#        69257
#        81261
#        92248
#        109608
#        123890
#        142937
#        155568
#
# Disc length: 2294 seconds
#
# Revision: 0
# Processed by: cddbd v1.5.2PL0 Copyright (c) Steve Scherf et al.
# Submitted via: ExactAudioCopy v1.0b4
#
DISCID=8808f40b
DTITLE=Nappy Brown With The Heartfixers - Tore Up (LP)
DYEAR=1984
DGENRE=Blues
TTITLE0=Who
TTITLE1=You Can Make It If You Try
TTITLE2=Heartbreak
TTITLE3=Lemon Squeezin' Daddy
TTITLE4=Jack The Rabbit
TTITLE5=Hidden Charms
TTITLE6=Losing Hand
TTITLE7=Tonight I'll Be Staying Here With You
TTITLE8=Hard Luck Blues
TTITLE9=Tore Up Over You
TTITLE10=Ain't My Cross To Bear
EXTD=
EXTT0=
EXTT1=
EXTT2=
EXTT3=
EXTT4=
EXTT5=
EXTT6=
EXTT7=
EXTT8=
EXTT9=
EXTT10=
PLAYORDER=
